<?xml version="1.0" encoding="UTF-8" standalone="no"?>
<svg
   xmlns:dc="http://purl.org/dc/elements/1.1/"
   xmlns:cc="http://creativecommons.org/ns#"
   xmlns:rdf="http://www.w3.org/1999/02/22-rdf-syntax-ns#"
   xmlns:svg="http://www.w3.org/2000/svg"
   xmlns="http://www.w3.org/2000/svg"
   xmlns:sodipodi="http://sodipodi.sourceforge.net/DTD/sodipodi-0.dtd"
   xmlns:inkscape="http://www.inkscape.org/namespaces/inkscape"
   width="210mm"
   height="297mm"
   viewBox="0 0 210 297"
   version="1.1"
   id="svg8"
   inkscape:version="1.0.2 (e86c870879, 2021-01-15, custom)"
   sodipodi:docname="icon.svg"
   inkscape:export-filename="/home/marcus/Development/keedrop/icon.png"
   inkscape:export-xdpi="96"
   inkscape:export-ydpi="96">
  <defs
     id="defs2" />
  <sodipodi:namedview
     id="base"
     pagecolor="#ffffff"
     bordercolor="#666666"
     borderopacity="1.0"
     inkscape:pageopacity="0.0"
     inkscape:pageshadow="2"
     inkscape:zoom="1.254251"
     inkscape:cx="287.89556"
     inkscape:cy="321.79348"
     inkscape:document-units="mm"
     inkscape:current-layer="g896"
     inkscape:document-rotation="0"
     showgrid="false"
     showguides="true"
     inkscape:guide-bbox="true"
     inkscape:window-width="2548"
     inkscape:window-height="1381"
     inkscape:window-x="2564"
     inkscape:window-y="52"
     inkscape:window-maximized="0">
    <sodipodi:guide
       position="100,209.02605"
       orientation="-1,0"
       id="guide19"
       inkscape:label=""
       inkscape:locked="false"
       inkscape:color="rgb(0,0,255)" />
    <sodipodi:guide
       position="52.066219,197.1198"
       orientation="0,-1"
       id="guide21" />
    <sodipodi:guide
       position="50,247.9576"
       orientation="-1,0"
       id="guide23"
       inkscape:label=""
       inkscape:locked="false"
       inkscape:color="rgb(0,0,255)" />
    <sodipodi:guide
       position="25,244.46132"
       orientation="-1,0"
       id="guide25"
       inkscape:label=""
       inkscape:locked="false"
       inkscape:color="rgb(0,0,255)" />
    <sodipodi:guide
       position="15,266.951"
       orientation="0,1"
       id="guide27"
       inkscape:label=""
       inkscape:locked="false"
       inkscape:color="rgb(0,0,255)" />
    <sodipodi:guide
       position="5.7641368,277"
       orientation="0,1"
       id="guide29"
       inkscape:label=""
       inkscape:locked="false"
       inkscape:color="rgb(0,0,255)" />
  </sodipodi:namedview>
  <metadata
     id="metadata5">
    <rdf:RDF>
      <cc:Work
         rdf:about="">
        <dc:format>image/svg+xml</dc:format>
        <dc:type
           rdf:resource="http://purl.org/dc/dcmitype/StillImage" />
        <dc:title></dc:title>
      </cc:Work>
    </rdf:RDF>
  </metadata>
  <g
     inkscape:label="Layer 1"
     inkscape:groupmode="layer"
     id="layer1">
    <path
       style="fill:#efbd47;stroke:#000000;stroke-width:1;stroke-linecap:butt;stroke-linejoin:miter;stroke-opacity:1;fill-opacity:1;stroke-miterlimit:4;stroke-dasharray:none"
       d="M 0.11778667,39.72899 C -0.05431627,-12.673427 98.405398,-13.464468 99.873828,39.630805 90.142994,30.049001 64.86573,20.000001 50,40 34.871098,20.000001 9.9126115,30.049001 0.1181466,39.729079 c -2.431e-5,2.5e-5 9.74e-6,-8.9e-5 9.74e-6,-8.9e-5 z"
       id="path12"
       sodipodi:nodetypes="scccss"
       inkscape:export-xdpi="96"
       inkscape:export-ydpi="96" />
    <path
       style="fill:none;stroke:#000000;stroke-width:1;stroke-linecap:butt;stroke-linejoin:miter;stroke-opacity:1;stroke-miterlimit:4;stroke-dasharray:none"
       d="M 0.11778667,39.728989 50,93.407795"
       id="path31"
       sodipodi:nodetypes="cc"
       inkscape:export-xdpi="96"
       inkscape:export-ydpi="96" />
    <path
       style="fill:none;stroke:#000000;stroke-width:1;stroke-linecap:butt;stroke-linejoin:miter;stroke-opacity:1;stroke-miterlimit:4;stroke-dasharray:none"
       d="M 99.873828,39.630805 50,93.407795"
       id="path33"
       sodipodi:nodetypes="cc"
       inkscape:export-xdpi="96"
       inkscape:export-ydpi="96" />
    <g
       id="g896"
       transform="translate(5.4911057,-35.544697)"
       inkscape:export-xdpi="96"
       inkscape:export-ydpi="96">
      <circle
         style="fill:#000000;fill-rule:evenodd;stroke-width:0.49439"
         id="path37"
         cx="44.488815"
         cy="138.54176"
         r="12.023897" />
      <path
         style="fill:#000000;stroke-width:0.0882838"
         d="m 42.036135,179.13415 -2.520464,-2.27546 -0.0035,-1.1629 -0.0036,-1.1629 -1.478757,-0.90201 c -0.813137,-0.49613 -1.507988,-0.9279 -1.543941,-0.95949 -0.03593,-0.0316 0.668546,-0.71137 1.565542,-1.51057 l 1.630907,-1.45312 0.0015,-1.55706 0.0015,-1.55704 -1.850416,-1.09458 -1.850416,-1.09459 1.943786,-2.0173 1.943786,-2.01728 -0.208894,-0.23084 c -0.114879,-0.12688 -0.971324,-1.05225 -1.903192,-2.05619 -0.931867,-1.00392 -1.694303,-1.85851 -1.694303,-1.89908 0,-0.0405 0.675374,-0.74825 1.500829,-1.57264 l 1.500832,-1.49887 v -1.76967 -1.76967 l -0.483383,-0.47738 c -0.265857,-0.26255 -0.470594,-0.49016 -0.454973,-0.50578 0.0157,-0.0149 0.174861,0.0327 0.35388,0.10763 0.606308,0.25334 2.139962,0.57402 3.108137,0.64991 2.880776,0.22579 5.772976,-0.55799 7.99695,-2.16718 L 50,146.88192 l 0.04884,0.55397 c 0.02685,0.30467 0.07132,6.95014 0.09877,14.76769 l 0.04991,14.21373 -2.523968,2.25125 c -1.38818,1.23819 -2.657322,2.36145 -2.820307,2.49616 l -0.296337,0.24491 z"
         id="path41" />
      <circle
         style="fill:#efbd47;fill-opacity:1;stroke:none;stroke-width:0.934793;stroke-miterlimit:4;stroke-dasharray:none;stroke-opacity:1"
         id="path883"
         cx="44.496422"
         cy="138.3112"
         r="10.853857" />
      <circle
         style="fill:#ffffff;fill-opacity:1;stroke:#000000;stroke-width:1;stroke-opacity:1;stroke-miterlimit:4;stroke-dasharray:none"
         id="path870"
         cx="44.426231"
         cy="133.08327"
         r="3.1977541" />
      <path
         style="fill:#ffffff;fill-opacity:1;stroke:#efbd47;stroke-width:1;stroke-linecap:butt;stroke-linejoin:miter;stroke-opacity:1;stroke-miterlimit:4;stroke-dasharray:none"
         d="m 45.978877,153.61168 c 0,20.66165 0,21.04747 0,21.04747"
         id="path43" />
    </g>
    <path
       style="fill:none;stroke:#000000;stroke-width:1;stroke-linecap:butt;stroke-linejoin:miter;stroke-opacity:1;stroke-miterlimit:4;stroke-dasharray:none"
       d="M 50,39.999999 49.991613,76.222841 50,93.407795"
       id="path35"
       sodipodi:nodetypes="ccc"
       inkscape:export-xdpi="96"
       inkscape:export-ydpi="96" />
  </g>
</svg>
